<svg id="Layer_1" data-name="Layer 1" xmlns="http://www.w3.org/2000/svg" xmlns:xlink="http://www.w3.org/1999/xlink" viewBox="0 0 19.6 20"><defs><style>.cls-1{fill:none;}.cls-2{clip-path:url(#clip-path);}.cls-3{fill:#4285f4;}.cls-4{fill:#34a853;}.cls-5{fill:#fbbc04;}.cls-6{fill:#e94235;}</style><clipPath id="clip-path" transform="translate(-10 -10)"><rect class="cls-1" x="10" y="10" width="20" height="20"/></clipPath></defs><g class="cls-2"><path class="cls-3" d="M29.6,20.23a11.41,11.41,0,0,0-.18-2.05H20v3.87h5.38a4.59,4.59,0,0,1-2,3v2.51h3.23A9.76,9.76,0,0,0,29.6,20.23Z" transform="translate(-10 -10)"/><path class="cls-4" d="M20,30a9.59,9.59,0,0,0,6.62-2.42l-3.23-2.51a6,6,0,0,1-9-3.17H11.06v2.59A10,10,0,0,0,20,30Z" transform="translate(-10 -10)"/><path class="cls-5" d="M14.4,21.9a6,6,0,0,1,0-3.8V15.51H11.06a10,10,0,0,0,0,9Z" transform="translate(-10 -10)"/><path class="cls-6" d="M20,14a5.38,5.38,0,0,1,3.82,1.49l2.87-2.87A9.61,9.61,0,0,0,20,10a10,10,0,0,0-8.94,5.51L14.4,18.1A6,6,0,0,1,20,14Z" transform="translate(-10 -10)"/></g></svg>